<?xml version="1.0" standalone="no"?>
<!DOCTYPE svg PUBLIC "-//W3C//DTD SVG 20010904//EN"
 "http://www.w3.org/TR/2001/REC-SVG-20010904/DTD/svg10.dtd">
<svg version="1.0" xmlns="http://www.w3.org/2000/svg"
 width="1080.000000pt" height="1080.000000pt" viewBox="0 0 1080.000000 1080.000000"
 preserveAspectRatio="xMidYMid meet">

<g transform="translate(0.000000,1080.000000) scale(0.100000,-0.100000)"
fill="#000000" stroke="none">
<path d="M5496 8528 c-74 -16 -109 -69 -110 -168 0 -51 5 -74 22 -101 47 -78
170 -90 233 -23 20 21 21 27 9 34 -20 13 -30 12 -30 0 0 -6 -15 -18 -34 -26
-68 -33 -141 6 -153 81 l-6 37 121 -7 122 -7 0 41 c0 106 -70 161 -174 139z
m78 -38 c26 -10 39 -28 50 -72 l6 -28 -84 0 c-109 0 -117 3 -104 41 20 57 74
81 132 59z"/>
<path d="M4446 8515 c-9 -24 4 -45 29 -45 29 0 38 13 30 40 -8 24 -50 27 -59
5z"/>
<path d="M5110 8511 c-52 -27 -75 -74 -74 -146 1 -114 53 -175 149 -175 55 0
106 25 125 61 10 17 9 23 -1 30 -21 13 -27 11 -34 -9 -7 -25 -47 -42 -95 -42
-30 0 -43 6 -64 31 -14 17 -26 34 -26 39 0 5 -3 15 -6 24 -7 17 15 22 149 32
l88 6 -6 41 c-4 23 -14 54 -21 69 -29 56 -118 75 -184 39z m130 -41 c18 -18
37 -67 29 -74 -2 -2 -46 -7 -98 -11 l-94 -7 7 33 c13 71 108 107 156 59z"/>
<path d="M5776 8488 c-3 -13 -13 -75 -21 -138 -9 -63 -18 -127 -21 -142 -5
-24 -2 -28 19 -28 23 0 25 5 31 63 12 99 26 154 48 183 19 23 26 26 69 22 36
-4 49 -1 54 9 9 25 -4 33 -51 33 -31 0 -50 -6 -64 -20 -26 -26 -31 -25 -28 7
4 36 -29 46 -36 11z"/>
<path d="M4774 8470 c-12 -4 -30 -20 -42 -34 -23 -30 -32 -33 -32 -11 0 17
-24 30 -38 21 -11 -7 50 -318 63 -323 30 -9 33 14 13 111 -11 57 -17 112 -14
132 9 44 48 74 97 74 52 0 65 -22 91 -159 21 -103 24 -111 45 -111 13 0 23 2
23 4 0 2 -9 48 -20 102 -25 122 -46 181 -70 194 -22 12 -87 12 -116 0z"/>
<path d="M6473 8233 c-84 -184 -90 -199 -72 -207 11 -5 20 -7 22 -5 2 2 36 75
77 163 41 87 76 153 78 146 4 -12 -14 -259 -24 -337 -6 -39 -4 -43 20 -49 23
-5 39 8 155 127 71 74 132 131 136 127 4 -3 -26 -77 -66 -163 -59 -128 -70
-158 -58 -166 8 -5 17 -9 20 -9 4 0 169 343 187 390 2 4 -12 13 -30 19 l-32
11 -143 -142 c-166 -166 -152 -173 -128 72 19 195 20 187 -15 205 -16 8 -30
15 -32 15 -2 0 -44 -89 -95 -197z"/>
<path d="M4499 8402 c-13 -6 -9 -27 31 -162 41 -135 49 -155 66 -152 10 2 20
5 21 6 4 4 -92 316 -97 315 -3 0 -12 -3 -21 -7z"/>
<path d="M4330 8366 c0 -31 -2 -34 -40 -39 -82 -11 -129 -70 -109 -140 10 -37
50 -77 76 -77 12 0 12 -4 -1 -22 -23 -32 -20 -55 9 -74 l25 -16 -20 -25 c-25
-33 -25 -54 1 -87 17 -22 28 -26 72 -26 58 0 139 33 172 70 30 33 28 106 -4
131 -30 24 -51 24 -132 -2 -73 -24 -99 -21 -99 11 0 15 12 26 43 39 90 39 117
125 55 182 -23 23 -28 33 -20 41 7 7 12 25 12 40 0 21 -5 28 -20 28 -16 0 -20
-7 -20 -34z m20 -98 c25 -28 26 -79 1 -102 -10 -9 -34 -19 -53 -22 -30 -5 -38
-2 -56 21 -30 38 -28 79 4 104 35 27 78 27 104 -1z m141 -260 c33 -61 -134
-144 -185 -92 -36 36 -10 70 79 99 73 25 90 24 106 -7z"/>
<path d="M3934 8171 c-38 -23 -64 -58 -64 -86 0 -19 -1 -19 -18 3 -12 15 -24
21 -35 16 -9 -3 -17 -8 -17 -10 0 -18 155 -284 165 -284 29 0 24 23 -25 115
-28 55 -50 109 -50 126 0 39 56 99 92 99 34 0 58 -29 118 -142 47 -88 54 -97
71 -87 19 10 17 15 -33 111 -67 126 -95 158 -140 158 -18 0 -47 -9 -64 -19z"/>
<path d="M6110 8156 c-27 -33 18 -72 48 -42 13 13 14 20 6 34 -15 23 -38 26
-54 8z"/>
<path d="M3535 8050 c-55 -39 -101 -75 -103 -80 -4 -12 237 -350 249 -350 5 0
56 34 114 76 87 63 104 78 94 90 -10 12 -15 12 -30 2 -10 -7 -52 -36 -92 -65
l-74 -52 -48 69 c-27 39 -46 72 -44 74 2 2 37 27 77 55 39 29 72 56 72 61 0
20 -24 21 -48 3 -15 -10 -50 -35 -78 -56 l-51 -37 -42 60 c-23 33 -40 64 -36
69 3 6 42 35 86 67 73 51 89 72 63 81 -6 2 -55 -28 -109 -67z"/>
<path d="M6997 8043 c-4 -3 -7 -14 -7 -24 0 -14 7 -16 38 -12 51 7 107 -30
107 -71 0 -47 -25 -54 -97 -28 -88 31 -120 29 -152 -9 -37 -44 -35 -92 4 -129
33 -31 78 -45 110 -35 16 5 20 2 20 -19 0 -15 11 -33 27 -46 24 -19 28 -19 36
-5 6 12 4 20 -9 29 -16 12 -13 20 44 109 72 110 79 151 37 193 -42 42 -136 70
-158 47z m35 -170 c32 -10 58 -23 58 -30 0 -6 -15 -28 -34 -47 -41 -45 -81
-48 -125 -10 -35 29 -38 49 -15 82 18 27 42 28 116 5z"/>
<path d="M7257 7809 c-42 -22 -93 -94 -103 -145 -8 -46 25 -115 68 -142 54
-33 148 -27 136 9 -3 9 -19 12 -51 10 -41 -2 -51 1 -77 27 -23 24 -30 39 -30
70 0 76 83 159 150 148 45 -7 90 -55 90 -96 0 -23 4 -30 20 -30 16 0 20 7 20
33 0 45 -32 93 -79 117 -50 25 -95 25 -144 -1z"/>
<path d="M7519 7571 c-155 -145 -165 -157 -151 -174 15 -17 19 -14 76 41 117
113 158 127 217 74 55 -49 46 -73 -62 -174 -88 -83 -93 -89 -76 -105 16 -16
22 -12 117 83 110 110 118 128 80 189 -22 35 -73 65 -112 65 -20 1 -13 10 45
63 64 60 67 64 50 79 -17 15 -28 6 -184 -141z"/>
<path d="M3073 7658 l-22 -21 105 -210 c97 -193 107 -209 122 -194 15 15 14
21 -13 77 l-29 61 67 67 67 66 56 -27 c56 -28 57 -28 76 -9 19 18 15 20 -191
115 -115 53 -211 97 -213 97 -2 0 -13 -10 -25 -22z m153 -84 c55 -25 101 -48
103 -50 6 -6 -100 -114 -111 -114 -7 0 -108 192 -108 205 0 11 21 4 116 -41z"/>
<path d="M7921 7406 c-17 -20 -3 -46 24 -46 29 0 38 13 30 40 -7 23 -37 26
-54 6z"/>
<path d="M2826 7347 c-45 -28 -91 -92 -100 -142 -20 -106 93 -235 227 -260 41
-8 116 14 137 41 8 9 32 14 67 14 51 0 58 3 94 39 42 41 48 58 24 67 -8 4 -27
-8 -46 -30 -23 -26 -39 -36 -61 -36 -25 0 -29 3 -23 18 51 122 -2 226 -147
292 -59 27 -123 26 -172 -3z m159 -45 c49 -24 104 -72 120 -103 32 -60 13
-133 -45 -183 -54 -45 -142 -28 -224 44 -83 73 -88 158 -14 227 47 44 96 49
163 15z"/>
<path d="M7725 7245 c-110 -86 -140 -122 -110 -132 6 -1 65 40 133 93 115 89
140 120 107 131 -5 1 -64 -40 -130 -92z"/>
<path d="M7819 7117 c-69 -45 -127 -85 -128 -90 -1 -4 2 -14 7 -23 7 -12 24
-5 95 42 110 71 158 80 200 38 33 -32 43 -65 28 -92 -6 -11 -56 -49 -111 -84
-55 -34 -100 -69 -100 -76 0 -29 33 -21 112 29 118 74 148 105 148 148 0 61
-53 120 -107 121 -28 0 -29 11 -3 28 20 12 18 43 -4 41 -6 0 -68 -37 -137 -82z"/>
<path d="M8070 6830 c-80 -15 -148 -69 -163 -130 -18 -70 51 -180 112 -180 26
0 32 4 29 18 -2 9 -13 18 -25 20 -36 5 -73 58 -73 102 0 40 39 100 64 100 7 0
34 -45 60 -100 26 -55 52 -100 57 -100 19 0 64 28 89 55 19 20 25 37 24 68 -2
98 -80 164 -174 147z m103 -66 c48 -48 43 -114 -13 -144 -18 -9 -23 -3 -60 70
-22 45 -38 85 -35 90 4 6 23 10 44 10 28 0 45 -7 64 -26z"/>
<path d="M2844 6686 c-11 -29 0 -51 26 -51 21 0 25 5 25 30 0 24 -5 31 -23 33
-13 2 -24 -3 -28 -12z"/>
<path d="M2480 6541 c-13 -25 -13 -88 0 -96 20 -12 10 -27 -14 -21 -17 4 -26
1 -30 -11 -4 -9 -5 -18 -2 -20 9 -10 302 -110 309 -106 4 2 7 12 7 21 0 12
-23 25 -83 46 -113 39 -134 52 -152 86 -14 27 -14 33 0 67 12 29 13 38 3 45
-20 12 -26 10 -38 -11z"/>
<path d="M8263 6341 c-106 -31 -194 -59 -197 -62 -5 -4 60 -238 68 -246 3 -3
11 -1 19 4 13 7 11 22 -15 107 -16 54 -28 100 -26 101 2 2 86 27 188 57 158
46 185 57 185 73 0 11 -7 21 -15 22 -8 0 -101 -24 -207 -56z"/>
<path d="M2440 6257 c-70 -24 -105 -116 -71 -192 17 -38 29 -50 73 -70 97 -46
196 -27 233 44 27 52 29 112 6 149 -35 54 -62 37 -34 -22 14 -30 15 -41 4 -76
-13 -43 -40 -67 -87 -75 -53 -10 -56 1 -29 114 30 122 30 118 8 124 -50 14
-71 14 -103 4z m77 -54 c-3 -10 -13 -52 -22 -93 -10 -41 -19 -76 -20 -78 -7
-8 -65 30 -75 47 -21 40 -7 100 29 128 9 7 33 13 54 13 32 0 38 -3 34 -17z"/>
<path d="M8283 6021 c-120 -31 -165 -136 -103 -239 24 -39 61 -57 73 -36 6 10
-2 22 -22 40 -56 46 -50 138 10 169 50 26 56 21 69 -57 28 -170 22 -153 60
-150 80 8 120 51 120 127 0 55 -24 104 -63 129 -29 19 -101 28 -144 17z m134
-56 c26 -19 47 -78 39 -111 -6 -23 -58 -64 -82 -64 -5 0 -17 43 -25 95 l-15
95 31 0 c17 0 40 -7 52 -15z"/>
<path d="M2370 5898 c-71 -26 -105 -133 -60 -191 26 -33 25 -37 -5 -37 -18 0
-25 -5 -25 -20 0 -22 -4 -22 237 -50 216 -25 223 -25 223 -1 0 15 -10 20 -47
25 -27 4 -65 9 -86 12 l-39 6 21 22 c66 71 49 181 -34 220 -48 23 -140 30
-185 14z m154 -52 c69 -29 87 -102 39 -156 -33 -37 -81 -47 -142 -30 -61 16
-91 49 -91 100 0 33 6 48 29 71 25 24 37 29 81 29 28 0 66 -6 84 -14z"/>
<path d="M8235 5668 c-35 -18 -45 -40 -45 -94 0 -42 5 -56 25 -75 28 -27 31
-39 11 -39 -16 0 -26 -21 -26 -56 0 -30 22 -31 35 -1 9 20 19 23 115 29 135 9
147 12 166 50 30 57 -6 188 -51 188 -26 0 -26 -20 -1 -51 44 -52 29 -139 -23
-139 -26 0 -37 16 -56 85 -10 33 -23 67 -28 77 -22 34 -83 48 -122 26z m100
-68 c8 -16 15 -37 15 -47 0 -10 6 -30 14 -45 13 -25 13 -27 -10 -32 -14 -4
-43 -2 -64 4 -91 24 -94 150 -4 150 27 0 36 -6 49 -30z"/>
<path d="M2367 5506 c-69 -26 -97 -66 -97 -143 0 -96 59 -147 170 -148 51 0
73 5 101 23 38 23 69 80 69 127 0 44 -31 104 -64 125 -43 26 -130 34 -179 16z
m174 -74 c39 -44 39 -90 0 -134 -28 -32 -32 -33 -106 -33 -72 0 -78 2 -101 28
-26 31 -33 92 -13 128 17 33 67 50 133 46 52 -3 63 -7 87 -35z"/>
<path d="M8198 5305 c-5 -24 -4 -25 56 -25 97 0 176 -17 204 -42 20 -19 23
-30 19 -65 -4 -34 -1 -42 14 -46 38 -10 40 68 3 112 l-26 31 25 0 c16 0 26 7
30 19 4 18 -4 20 -122 25 -69 4 -142 9 -162 11 -33 4 -37 2 -41 -20z"/>
<path d="M2580 5157 c0 -14 -6 -29 -13 -35 -9 -8 -350 -52 -399 -52 -5 0 -8
-9 -8 -20 0 -15 7 -20 28 -20 63 0 383 40 402 50 35 19 41 92 7 98 -12 3 -17
-3 -17 -21z"/>
<path d="M8180 5071 c0 -22 7 -25 110 -41 41 -7 90 -18 108 -26 43 -18 65 -67
52 -116 -16 -55 -40 -60 -177 -38 -116 19 -141 16 -130 -13 6 -17 241 -53 281
-43 59 15 87 126 46 179 -25 32 -25 35 4 30 16 -3 25 1 30 13 3 9 5 19 3 21
-4 3 -299 53 -317 53 -6 0 -10 -9 -10 -19z"/>
<path d="M2555 4970 c-3 -6 10 -25 29 -44 31 -28 36 -40 36 -78 0 -31 -6 -51
-21 -67 -22 -23 -68 -45 -77 -36 -3 2 -15 53 -26 112 l-21 108 -33 -3 c-104
-8 -150 -98 -102 -197 26 -54 64 -75 137 -75 143 1 220 102 169 224 -21 49
-75 82 -91 56z m-90 -140 c10 -50 15 -93 12 -97 -13 -13 -77 9 -97 34 -23 29
-27 91 -7 115 14 18 47 37 63 38 7 0 19 -40 29 -90z"/>
<path d="M8107 4711 c-4 -17 12 -23 154 -59 87 -22 161 -37 164 -34 3 3 5 12
5 21 0 12 -35 25 -148 54 -82 20 -153 37 -159 37 -6 0 -13 -9 -16 -19z"/>
<path d="M8507 4633 c-13 -13 -7 -51 9 -57 20 -8 44 11 44 34 0 23 -37 39 -53
23z"/>
<path d="M2380 4581 c0 -36 12 -41 109 -42 53 -1 121 -4 151 -7 l55 -7 -117
-94 c-65 -52 -118 -100 -118 -105 1 -41 22 -30 152 75 134 108 136 111 127
139 -10 27 -13 29 -92 34 -227 15 -267 16 -267 7z"/>
<path d="M8073 4574 c-8 -21 5 -28 102 -60 87 -29 145 -75 145 -114 0 -35 -31
-90 -54 -96 -12 -3 -74 13 -140 36 -94 32 -121 38 -127 28 -17 -27 -23 -23
125 -74 123 -42 158 -43 191 -8 37 40 43 95 19 159 -5 13 -2 15 18 10 19 -5
27 -2 32 11 4 9 5 18 4 19 -7 4 -297 105 -302 105 -4 0 -9 -7 -13 -16z"/>
<path d="M2738 4322 c-4 -14 3 -22 26 -30 39 -14 66 -58 66 -107 0 -28 -7 -44
-31 -66 -17 -16 -34 -29 -38 -29 -4 0 -29 47 -56 105 -26 58 -51 105 -54 105
-23 -1 -89 -51 -104 -80 -44 -87 32 -200 135 -200 46 0 128 41 161 79 62 74
16 208 -79 235 -16 5 -23 1 -26 -12z m-57 -159 c19 -42 35 -80 37 -84 6 -14
-65 -21 -87 -9 -28 14 -61 68 -61 98 0 25 41 72 63 72 7 0 29 -35 48 -77z"/>
<path d="M7825 4293 c-38 -38 -75 -120 -75 -166 0 -71 81 -122 132 -84 9 7 33
41 53 76 40 68 61 83 80 57 11 -14 9 -26 -8 -66 -17 -40 -19 -57 -11 -86 11
-47 52 -78 99 -77 29 1 36 -3 41 -23 9 -35 30 -49 49 -34 14 12 13 15 -5 32
-25 24 -25 24 5 59 83 100 -2 229 -122 186 -18 -7 -22 -5 -17 7 3 8 0 24 -6
36 -9 18 -19 21 -46 18 -32 -4 -34 -2 -34 27 0 67 -83 89 -135 38z m95 -31
c28 -23 24 -45 -22 -122 -28 -47 -38 -55 -63 -55 -23 0 -32 6 -39 27 -13 37 6
98 43 137 33 36 50 38 81 13z m220 -137 c36 -18 47 -55 30 -96 -16 -37 -44
-53 -78 -44 -59 15 -77 58 -47 115 22 42 48 49 95 25z"/>
<path d="M2843 3980 c-46 -11 -116 -54 -151 -94 -42 -48 -58 -103 -44 -156 11
-43 101 -200 115 -200 9 0 336 206 354 224 17 16 -84 168 -134 199 -44 28 -94
38 -140 27z m118 -63 c30 -20 117 -134 108 -141 -29 -20 -278 -176 -289 -181
-11 -4 -25 11 -48 48 -63 104 -61 159 9 222 82 73 160 92 220 52z"/>
<path d="M7655 3753 c-90 -124 -87 -119 -71 -132 11 -9 27 6 80 79 l67 91 32
-22 c18 -13 49 -36 69 -51 l37 -29 -55 -76 c-49 -65 -54 -77 -42 -89 13 -13
21 -5 68 61 29 41 58 75 63 75 6 0 34 -18 64 -41 l54 -41 -17 -26 c-10 -15
-37 -54 -61 -86 -42 -57 -48 -76 -26 -83 14 -5 167 207 156 217 -14 13 -341
250 -345 250 -1 0 -34 -44 -73 -97z"/>
<path d="M7509 3564 c-11 -14 -5 -24 51 -77 113 -108 128 -139 93 -197 -43
-73 -86 -63 -193 45 -77 77 -90 85 -109 61 -9 -10 10 -32 90 -105 90 -81 106
-91 139 -91 66 0 129 75 114 136 -7 26 -7 26 19 9 25 -16 47 -14 47 4 0 9
-136 143 -201 200 -33 28 -38 29 -50 15z"/>
<path d="M3220 3530 c0 -16 7 -20 36 -20 28 0 44 -8 71 -35 32 -32 35 -40 30
-77 -3 -22 -15 -50 -26 -61 l-20 -21 -80 85 -79 84 -37 -36 c-67 -66 -55 -159
27 -209 76 -46 195 -1 244 92 48 92 -27 218 -130 218 -29 0 -36 -4 -36 -20z
m60 -241 c0 -10 -50 -29 -78 -29 -45 1 -92 51 -92 98 0 11 10 32 22 47 l22 28
62 -69 c35 -38 63 -72 64 -75z"/>
<path d="M7153 3399 c-23 -11 -60 -40 -82 -65 -33 -35 -41 -51 -41 -82 0 -56
31 -92 78 -92 28 0 51 11 97 46 32 24 66 43 75 42 29 -6 22 -39 -19 -83 -35
-38 -41 -51 -41 -88 0 -50 34 -97 70 -97 17 0 20 -6 20 -46 0 -38 3 -45 18
-42 13 3 16 12 14 40 -2 31 1 37 22 42 13 3 38 22 55 41 52 59 39 135 -29 170
-16 8 -38 15 -49 15 -18 0 -19 3 -11 25 8 20 6 29 -10 45 -11 11 -27 20 -35
20 -18 0 -18 5 -4 32 16 30 3 66 -31 83 -38 20 -47 19 -97 -6z m85 -41 c30
-30 0 -78 -85 -136 -37 -26 -47 -27 -67 -6 -22 22 -20 56 6 89 43 55 117 82
146 53z m147 -223 c40 -40 29 -92 -25 -120 -23 -12 -34 -13 -55 -3 -58 26 -65
96 -13 132 32 23 65 20 93 -9z"/>
<path d="M3500 3180 c-95 -101 -116 -109 -169 -64 -29 24 -61 27 -61 5 0 -5
14 -21 32 -36 25 -21 39 -26 65 -22 35 6 42 -3 18 -23 -12 -10 -13 -16 -4 -26
6 -8 15 -14 19 -14 5 0 56 55 114 122 80 93 102 125 94 135 -6 7 -13 13 -17
13 -3 0 -44 -41 -91 -90z"/>
<path d="M3650 3187 c0 -7 5 -18 12 -25 9 -9 -5 -35 -55 -109 -41 -60 -67
-108 -67 -124 0 -55 84 -118 158 -119 27 0 32 4 32 23 0 20 -4 23 -29 19 -37
-5 -100 24 -113 53 -14 31 5 65 36 65 13 0 43 -9 67 -20 24 -11 63 -20 86 -20
77 0 119 84 71 145 -27 34 -80 57 -113 49 -22 -5 -25 -3 -25 19 0 28 -23 57
-46 57 -8 0 -14 -6 -14 -13z m124 -97 c14 -5 32 -20 41 -34 15 -22 15 -27 1
-54 -23 -44 -40 -45 -139 -9 -43 16 -45 21 -16 60 31 42 68 54 113 37z"/>
<path d="M7001 3111 c-16 -11 -20 -4 87 -158 74 -107 87 -121 104 -112 10 6
16 15 12 22 -22 37 -179 257 -183 257 -3 0 -12 -4 -20 -9z"/>
<path d="M6881 3031 c-16 -10 -18 -3 43 -114 59 -108 63 -148 17 -189 -19 -17
-43 -28 -61 -28 -34 0 -54 23 -125 147 -42 74 -49 82 -66 72 -23 -12 -31 8 70
-166 51 -89 85 -111 142 -94 40 12 89 61 89 90 0 28 12 33 27 11 17 -23 31
-26 39 -6 5 13 -144 286 -156 286 -3 0 -11 -4 -19 -9z"/>
<path d="M3901 2877 c-133 -152 -134 -154 -115 -161 22 -8 24 -6 115 102 45
53 85 98 90 100 9 4 8 -7 -22 -157 -24 -116 -24 -128 0 -136 15 -5 37 12 94
72 41 43 84 89 95 103 11 14 23 22 27 18 4 -3 -9 -66 -29 -139 -26 -100 -32
-135 -23 -141 7 -4 16 -6 21 -5 7 2 42 135 81 303 3 16 -2 24 -22 33 -27 12
-30 10 -120 -86 -65 -69 -92 -92 -93 -79 0 11 10 71 22 134 22 112 22 114 3
128 -10 8 -22 14 -27 14 -4 0 -48 -46 -97 -103z"/>
<path d="M6464 2821 c-47 -22 -86 -66 -82 -95 5 -32 26 -29 41 6 17 39 81 74
120 64 27 -6 77 -53 77 -71 0 -7 -46 -32 -102 -55 -57 -23 -104 -44 -106 -45
-8 -7 30 -78 54 -100 20 -19 38 -25 71 -25 129 0 190 116 126 240 -48 93 -113
120 -199 81z m182 -167 c14 -57 -36 -117 -97 -117 -24 0 -40 8 -61 32 -16 18
-28 35 -26 36 5 5 161 73 170 74 4 1 11 -11 14 -25z"/>
<path d="M4328 2804 c-16 -15 -7 -34 15 -34 31 0 67 -27 67 -50 0 -16 -65
-208 -73 -217 -2 -1 -27 6 -55 17 -50 19 -52 19 -52 1 0 -13 14 -24 46 -36 47
-18 49 -23 28 -79 -5 -12 0 -16 19 -16 20 0 27 6 32 31 5 22 12 30 23 26 10
-2 23 -6 31 -8 8 -2 17 4 19 13 2 12 -5 19 -23 24 -14 4 -24 12 -22 18 53 142
78 229 73 249 -3 14 -17 32 -32 42 -29 19 -85 30 -96 19z"/>
<path d="M7224 2776 c-10 -26 4 -48 28 -44 17 2 23 10 23 28 0 18 -6 26 -23
28 -13 2 -25 -3 -28 -12z"/>
<path d="M6165 2721 c-48 -12 -75 -30 -95 -64 -25 -40 -25 -43 0 -50 12 -3 20
0 20 7 0 19 43 56 79 66 44 12 86 -5 111 -45 11 -18 20 -35 20 -38 0 -3 -25
-13 -55 -21 -30 -9 -80 -23 -110 -32 -63 -18 -68 -30 -34 -95 35 -70 117 -86
195 -38 65 40 79 148 31 234 -37 65 -95 92 -162 76z m145 -202 c0 -41 -15 -66
-50 -84 -42 -22 -74 -18 -104 11 -43 43 -35 57 47 81 102 29 107 29 107 -8z"/>
<path d="M4645 2698 c-3 -7 -20 -69 -39 -137 -19 -67 -37 -125 -39 -128 -3 -2
-22 0 -44 6 -51 14 -63 14 -63 -4 0 -8 17 -19 43 -26 23 -7 46 -15 50 -19 14
-12 -4 -60 -29 -77 -22 -14 -27 -14 -64 5 -31 15 -42 17 -50 7 -17 -20 24 -47
80 -53 43 -4 55 -1 75 18 14 13 27 38 31 56 5 30 9 33 34 28 19 -4 29 -1 33
10 5 12 -1 18 -23 23 -17 3 -30 6 -30 7 0 0 18 64 40 141 30 106 37 141 27
147 -17 11 -27 10 -32 -4z"/>
<path d="M4856 2650 c-15 -5 -37 -17 -48 -27 -56 -49 -76 -178 -38 -240 36
-60 119 -85 188 -58 49 20 77 60 92 132 21 95 -20 169 -105 192 -46 12 -49 12
-89 1z m128 -72 c26 -29 28 -35 23 -91 -6 -64 -27 -102 -69 -126 -21 -12 -33
-13 -67 -3 -71 22 -93 89 -62 185 27 80 117 98 175 35z"/>
<path d="M5923 2628 c28 -164 30 -196 18 -226 -13 -32 -60 -58 -86 -48 -8 3
-15 1 -15 -3 0 -5 -3 -17 -7 -27 -6 -15 -1 -16 36 -11 44 6 81 30 81 54 0 22
17 14 24 -11 8 -32 48 -25 41 8 -2 11 -14 73 -25 136 -29 165 -28 160 -51 160
-18 0 -21 -4 -16 -32z"/>
<path d="M5201 2607 c-49 -17 -76 -58 -76 -117 0 -66 27 -92 125 -125 43 -14
85 -34 94 -44 25 -28 21 -78 -9 -97 -36 -24 -127 -15 -159 15 -24 23 -24 23
-35 3 -9 -17 -7 -24 16 -42 35 -28 62 -33 135 -28 54 4 64 8 91 38 26 29 29
38 24 79 -6 58 -33 82 -124 111 -80 26 -113 53 -113 90 0 36 33 76 68 83 45 9
102 -9 136 -42 25 -24 35 -28 44 -19 19 19 14 35 -20 62 -58 43 -133 55 -197
33z"/>
<path d="M5545 2606 c-22 -16 -15 -50 11 -54 25 -4 47 19 38 41 -8 22 -29 28
-49 13z"/>
</g>
</svg>
