<?xml version="1.0" standalone="no"?>
<!DOCTYPE svg PUBLIC "-//W3C//DTD SVG 20010904//EN"
 "http://www.w3.org/TR/2001/REC-SVG-20010904/DTD/svg10.dtd">
<svg version="1.0" xmlns="http://www.w3.org/2000/svg"
 width="500.000000pt" height="500.000000pt" viewBox="0 0 500.000000 500.000000"
 preserveAspectRatio="xMidYMid meet">

<g transform="translate(0.000000,500.000000) scale(0.100000,-0.100000)"
fill="#000000" stroke="none">
<path d="M2420 4633 c-8 -3 -27 -15 -43 -25 -98 -69 -88 -277 16 -329 42 -22
135 -27 177 -11 25 10 87 69 79 75 -2 2 -17 11 -32 21 -28 17 -29 17 -54 -6
-37 -35 -107 -33 -139 5 -13 15 -24 37 -24 48 0 18 8 19 125 19 l125 0 0 50
c0 57 -15 93 -55 130 -21 20 -38 25 -93 27 -37 1 -74 0 -82 -4z m124 -85 c30
-43 21 -58 -34 -60 -111 -4 -105 -5 -102 22 5 57 104 84 136 38z"/>
<path d="M2737 4523 c-28 -166 -41 -263 -35 -268 3 -3 22 -6 43 -8 l38 -2 18
103 c10 57 25 115 34 128 23 36 57 49 93 36 28 -10 30 -8 40 26 14 45 6 55
-49 55 -32 0 -47 -6 -61 -23 l-18 -22 0 31 c0 20 -5 31 -14 31 -7 0 -27 3 -43
6 l-29 6 -17 -99z"/>
<path d="M2043 4593 c-12 -2 -36 -20 -53 -40 -30 -34 -32 -34 -37 -13 -5 19
-10 21 -42 15 -20 -4 -40 -10 -44 -14 -8 -8 5 -72 74 -358 16 -67 29 -128 29
-137 0 -11 8 -13 38 -9 20 3 41 9 46 14 5 4 1 39 -8 81 -24 104 -25 108 -17
108 4 0 12 -5 19 -12 6 -6 35 -11 63 -11 55 1 87 18 123 67 32 42 29 143 -6
218 -39 84 -91 109 -185 91z m65 -89 c33 -23 52 -67 52 -119 0 -60 -12 -81
-56 -95 -32 -11 -40 -10 -63 7 -35 26 -61 79 -61 126 0 29 7 46 29 68 33 32
65 37 99 13z"/>
<path d="M1571 4428 c-62 -30 -101 -88 -101 -150 0 -112 92 -218 189 -218 44
0 112 33 151 74 33 35 35 41 35 104 0 55 -5 75 -28 114 -55 95 -148 123 -246
76z m127 -75 c30 -26 62 -93 62 -129 0 -59 -72 -99 -127 -70 -32 16 -73 95
-73 138 0 62 90 102 138 61z"/>
<path d="M1183 4369 c-32 -20 -32 -22 -18 -47 9 -15 30 -47 48 -72 18 -25 57
-81 87 -125 79 -116 121 -166 148 -176 30 -12 82 4 107 31 18 19 17 21 -5 45
-19 20 -26 22 -43 13 -24 -13 -34 -3 -129 137 -99 145 -102 148 -127 183 -14
17 -27 32 -30 32 -3 0 -21 -10 -38 -21z"/>
<path d="M3610 4359 c-78 -34 -158 -143 -176 -237 -8 -39 6 -92 37 -142 16
-25 22 -52 23 -95 1 -49 6 -67 26 -91 22 -28 82 -74 95 -74 2 0 11 14 20 30
15 30 15 31 -25 69 -42 40 -57 90 -22 76 50 -21 99 -27 141 -15 94 25 201 171
201 274 0 83 -60 165 -150 205 -57 26 -113 26 -170 0z m160 -84 c35 -18 70
-73 70 -110 0 -42 -30 -95 -85 -152 -48 -50 -54 -53 -99 -53 -43 0 -53 4 -87
39 -35 35 -39 44 -39 89 0 43 6 58 43 108 24 33 54 67 68 76 30 21 91 23 129
3z"/>
<path d="M3106 4234 c-36 -35 -4 -94 51 -94 22 0 53 33 53 57 0 21 -38 53 -64
53 -14 0 -32 -7 -40 -16z"/>
<path d="M1096 4095 c-77 -27 -126 -96 -126 -177 0 -47 13 -72 69 -131 46 -50
80 -67 131 -67 101 0 208 117 186 203 -5 22 -10 24 -38 18 -28 -6 -34 -12 -39
-44 -11 -70 -74 -110 -128 -83 -17 9 -31 20 -31 25 0 4 39 45 86 90 l86 83
-37 38 c-21 21 -49 41 -64 45 -14 3 -33 8 -41 10 -8 2 -32 -2 -54 -10z m72
-83 l22 -17 -54 -54 c-47 -46 -57 -52 -70 -41 -24 19 -19 65 10 99 29 35 58
39 92 13z"/>
<path d="M4170 3963 c-22 -8 -194 -70 -275 -100 -140 -51 -175 -65 -175 -72 1
-3 14 -21 29 -39 l29 -34 47 21 c26 12 52 21 57 21 10 0 25 -16 88 -96 l41
-52 -31 -45 c-16 -25 -30 -48 -30 -53 0 -10 50 -74 58 -74 4 0 21 23 37 51 17
28 37 62 45 75 8 13 42 67 74 121 33 54 73 117 88 140 15 23 28 48 28 55 -1
18 -67 88 -83 87 -6 0 -19 -3 -27 -6z m-21 -130 c-12 -21 -33 -57 -46 -80 -39
-68 -45 -69 -91 -14 -23 27 -42 51 -42 54 0 2 33 16 73 31 39 15 81 31 92 36
35 15 37 11 14 -27z"/>
<path d="M829 3833 l-26 -37 65 -91 c36 -49 74 -100 85 -112 29 -33 15 -38
-50 -20 -224 64 -219 64 -249 5 -16 -31 -24 -25 71 -47 22 -5 93 -23 158 -40
65 -17 124 -31 131 -31 7 0 26 19 42 43 l31 43 -36 51 c-88 124 -194 273 -195
273 0 0 -13 -17 -27 -37z"/>
<path d="M4445 3430 c-38 -16 -136 -55 -217 -86 l-146 -58 23 -61 c13 -33 40
-103 60 -156 l37 -97 38 16 39 15 -16 36 c-24 55 -73 185 -70 187 1 1 30 13
65 28 57 23 64 23 69 8 11 -32 64 -167 67 -169 7 -7 66 20 66 31 0 6 -14 44
-31 84 -16 40 -29 80 -27 89 2 13 97 60 103 51 1 -2 19 -48 41 -103 38 -96 40
-100 68 -98 48 4 50 15 14 104 -19 46 -45 112 -59 147 -15 39 -29 62 -39 62
-8 -1 -46 -14 -85 -30z"/>
<path d="M580 3411 c-73 -77 -75 -198 -5 -260 79 -69 207 -81 266 -25 52 49
72 99 67 166 -2 33 -11 65 -19 73 -12 12 -18 11 -41 -9 -26 -20 -27 -24 -16
-54 11 -29 10 -38 -7 -70 -23 -42 -63 -65 -99 -56 -28 7 -30 0 26 130 21 50
38 96 38 103 0 18 -69 41 -123 41 -45 0 -54 -4 -87 -39z m118 -49 c10 -7 7
-20 -12 -63 -13 -30 -26 -62 -29 -71 -15 -43 -73 30 -61 77 11 46 69 78 102
57z"/>
<path d="M394 3041 c-66 -30 -98 -89 -124 -232 -26 -139 -28 -134 60 -145 30
-3 128 -19 217 -35 89 -16 169 -29 176 -29 10 0 19 30 30 100 29 173 21 225
-46 293 -64 64 -224 88 -313 48z m167 -82 c34 -8 64 -22 88 -44 36 -33 36 -34
35 -110 -1 -42 -7 -82 -13 -88 -9 -9 -47 -5 -154 12 -194 33 -178 26 -171 75
10 67 45 129 84 148 41 21 61 22 131 7z"/>
<path d="M4375 2972 c-88 -14 -161 -26 -163 -27 -1 -1 1 -22 4 -47 l6 -45 107
19 c139 24 147 23 182 -11 31 -32 37 -66 16 -95 -14 -19 -101 -41 -211 -52
l-68 -7 6 -45 c3 -25 7 -46 9 -47 5 -5 274 46 298 56 70 28 77 140 13 204 -35
35 -35 35 -9 35 26 0 32 19 19 68 -8 27 -2 27 -209 -6z"/>
<path d="M4560 2560 l0 -30 -121 0 c-66 0 -129 -5 -140 -10 -28 -16 -49 -63
-49 -113 0 -59 16 -79 55 -69 26 8 30 13 27 41 -6 54 8 61 124 61 l104 0 0
-55 0 -55 35 0 35 0 0 55 0 55 43 0 42 0 -3 45 -4 45 -39 0 c-37 0 -39 2 -39
30 0 28 -3 30 -35 30 -32 0 -35 -2 -35 -30z"/>
<path d="M647 2368 c-13 -31 -12 -35 13 -60 52 -52 42 -135 -19 -156 -17 -6
-31 -8 -32 -4 0 4 -8 59 -17 122 l-17 115 -39 -3 c-56 -5 -113 -37 -133 -75
-21 -40 -20 -118 1 -169 10 -23 33 -49 58 -65 84 -56 229 -28 285 56 27 40 32
131 9 184 -13 32 -68 87 -87 87 -5 0 -15 -15 -22 -32z m-113 -100 c3 -13 8
-49 11 -80 l6 -57 -31 9 c-18 5 -38 14 -46 21 -19 16 -18 93 2 113 23 23 53
20 58 -6z"/>
<path d="M4246 2278 c-16 -59 -12 -62 87 -82 116 -23 151 -38 173 -70 13 -21
15 -34 8 -59 -15 -51 -44 -55 -189 -26 l-124 25 -7 -43 c-3 -24 -5 -45 -3 -46
16 -10 244 -52 282 -52 42 0 53 5 77 32 40 44 48 103 20 149 -11 20 -19 38
-16 41 2 2 43 -5 91 -16 48 -12 90 -21 95 -21 7 0 32 81 27 86 -2 2 -134 31
-370 80 -144 29 -143 29 -151 2z"/>
<path d="M467 1963 c-26 -4 -28 -8 -22 -31 11 -44 33 -71 68 -80 l32 -9 -27
-11 c-16 -7 -28 -15 -28 -20 0 -17 22 -72 28 -72 9 0 336 112 341 116 2 2 -1
22 -8 45 -8 26 -17 39 -25 36 -7 -3 -59 -19 -116 -37 -89 -27 -106 -30 -131
-19 -32 13 -49 36 -49 68 0 21 -5 23 -63 14z"/>
<path d="M4141 1865 c-44 -50 -52 -98 -26 -159 7 -16 6 -17 -13 -7 -29 15 -30
15 -47 -19 -20 -39 -19 -49 8 -59 25 -10 104 -46 226 -102 46 -21 85 -39 86
-39 3 0 35 78 35 84 0 2 -15 9 -32 17 -89 35 -179 81 -198 101 -24 26 -26 65
-4 96 26 37 57 30 236 -51 l58 -27 20 40 20 39 -63 29 c-228 109 -256 114
-306 57z"/>
<path d="M834 1812 c-12 -10 -21 -28 -20 -41 1 -18 -9 -29 -39 -45 -109 -59
-152 -87 -165 -110 -30 -57 15 -163 93 -214 43 -28 63 -24 78 17 8 19 4 24
-25 36 -36 15 -80 74 -74 101 2 9 11 22 21 28 15 9 25 3 65 -39 63 -67 90 -85
134 -85 47 0 95 39 104 84 9 49 -27 113 -74 133 -47 19 -47 20 -32 38 14 17 7
57 -16 93 -17 26 -23 27 -50 4z m66 -172 c37 -37 21 -100 -24 -100 -19 0 -96
65 -96 82 0 12 52 37 78 38 12 0 31 -9 42 -20z"/>
<path d="M3999 1557 c-111 -59 -146 -217 -58 -262 56 -30 82 -21 184 59 39 31
66 28 73 -8 4 -20 -59 -86 -83 -86 -13 0 -15 -6 -10 -32 10 -47 16 -50 62 -27
56 27 103 100 103 158 0 59 -41 101 -98 101 -32 0 -51 -9 -98 -45 -62 -48 -88
-55 -102 -27 -19 35 28 92 90 107 24 6 25 8 16 46 -6 21 -16 39 -23 39 -6 0
-32 -10 -56 -23z"/>
<path d="M1055 1444 c-11 -9 -40 -26 -65 -38 -75 -38 -221 -119 -239 -133 -8
-6 42 -53 56 -53 8 0 37 16 66 35 28 19 55 35 60 35 4 0 25 12 47 26 22 15 43
24 46 21 3 -3 -8 -26 -25 -51 -17 -24 -31 -47 -31 -49 0 -3 -16 -29 -35 -58
-41 -63 -42 -70 -12 -104 l22 -25 109 55 c59 30 114 55 122 55 7 0 -21 -48
-63 -106 l-75 -105 27 -29 28 -29 31 42 c17 23 38 52 46 64 8 11 43 62 78 112
l63 91 -27 35 c-14 19 -32 35 -38 35 -7 0 -61 -26 -121 -58 -61 -32 -111 -55
-113 -51 -2 5 28 57 66 117 l69 109 -34 36 c-18 21 -34 37 -36 37 -1 0 -11 -8
-22 -16z"/>
<path d="M3775 1299 l-30 -31 115 -109 c63 -60 125 -117 138 -126 22 -16 25
-15 55 16 21 21 28 34 21 39 -7 4 -67 59 -134 122 -67 63 -125 116 -129 118
-4 1 -20 -12 -36 -29z"/>
<path d="M3628 1165 c-37 -25 -62 -74 -51 -101 4 -12 -2 -14 -34 -8 -33 5 -44
2 -72 -21 -23 -20 -29 -31 -22 -38 18 -18 12 -23 -23 -19 -49 6 -126 -23 -169
-62 -33 -30 -37 -39 -37 -81 0 -40 5 -52 34 -81 39 -39 52 -40 141 -18 52 13
68 14 80 4 35 -29 -3 -72 -73 -80 -43 -5 -47 -8 -53 -37 -6 -30 -4 -33 20 -34
79 -3 144 24 179 74 28 41 28 80 1 123 -24 40 -53 49 -117 39 -82 -14 -114
-12 -126 8 -9 15 -6 23 18 44 26 22 37 25 82 21 52 -5 53 -4 60 26 15 69 50
61 120 -26 87 -107 87 -108 144 -108 46 0 53 3 104 53 39 39 56 64 61 91 9 43
8 44 -32 52 -28 5 -31 3 -36 -26 -8 -38 -58 -90 -86 -90 -41 0 -45 57 -6 90
10 8 28 32 41 52 39 62 28 129 -26 161 -39 24 -79 21 -122 -8z m89 -105 c2
-27 -5 -44 -31 -74 l-34 -40 -21 35 c-25 41 -26 67 -5 97 12 18 24 22 52 20
34 -3 37 -5 39 -38z"/>
<path d="M1341 1119 c-6 -18 -11 -33 -11 -34 0 -2 13 -8 30 -15 31 -13 46 -41
34 -62 -6 -10 -79 -113 -110 -157 -2 -2 -22 11 -46 28 l-43 32 -17 -22 c-18
-22 -24 -49 -10 -49 4 0 20 -11 36 -24 l30 -23 -22 -36 -21 -36 33 -21 c43
-26 50 -25 66 5 14 26 34 33 45 15 11 -18 32 -11 50 17 17 25 17 27 -5 43
l-23 18 50 69 c92 126 103 168 57 223 -27 32 -73 60 -98 60 -8 0 -19 -14 -25
-31z"/>
<path d="M4087 1012 c-33 -37 -13 -92 33 -92 50 0 78 61 42 93 -24 22 -55 21
-75 -1z"/>
<path d="M1590 834 c-36 -69 -68 -128 -71 -130 -4 -2 -28 7 -53 21 l-47 25
-10 -27 c-5 -14 -12 -29 -14 -33 -3 -4 15 -17 40 -29 49 -23 55 -41 25 -71
-16 -16 -24 -18 -47 -9 -16 6 -35 17 -44 25 -14 12 -18 11 -39 -11 -23 -24
-23 -25 -5 -45 26 -28 96 -60 134 -60 24 0 42 9 67 34 19 19 34 42 34 51 0 11
5 15 15 11 8 -3 21 -8 29 -12 8 -3 18 7 26 26 13 32 9 41 -24 53 -5 2 7 32 26
68 20 35 52 95 71 132 l36 68 -32 19 c-18 11 -36 20 -42 20 -5 0 -39 -57 -75
-126z"/>
<path d="M1840 839 c-73 -29 -126 -129 -118 -221 11 -105 111 -173 228 -153
46 8 90 47 120 106 23 44 27 151 7 185 -41 73 -159 114 -237 83z m135 -94 c31
-30 33 -82 6 -142 -21 -46 -45 -63 -89 -63 -37 0 -82 49 -82 88 0 33 43 128
61 135 35 14 81 6 104 -18z"/>
<path d="M2982 820 c-42 -26 -48 -42 -27 -74 16 -24 19 -25 38 -11 26 18 61
19 75 2 11 -13 62 -163 62 -183 0 -7 -21 -17 -46 -23 -45 -12 -46 -13 -40 -43
3 -17 8 -33 10 -35 2 -3 27 2 55 11 l51 15 11 -40 c7 -21 14 -39 16 -39 2 0
21 9 43 20 36 18 39 22 30 46 -14 37 -13 43 15 54 22 8 23 12 13 41 -9 27 -14
30 -39 25 -25 -5 -29 -2 -40 32 -36 113 -72 191 -94 206 -33 22 -93 20 -133
-4z"/>
<path d="M2235 760 c-17 -5 -44 -23 -60 -40 -25 -26 -30 -40 -33 -95 -4 -64
-4 -65 35 -104 25 -26 54 -43 83 -50 77 -19 115 -43 118 -74 5 -42 -13 -57
-70 -57 -49 0 -80 11 -106 37 -19 19 -26 17 -51 -18 -21 -29 -22 -32 -6 -49
25 -28 101 -50 169 -50 86 0 136 29 153 89 26 91 -17 156 -126 190 -68 21
-111 53 -111 83 0 32 36 58 81 58 47 0 72 -11 117 -53 l32 -31 31 30 30 31
-25 30 c-50 60 -184 97 -261 73z"/>
<path d="M2682 754 c-18 -12 -22 -24 -20 -52 3 -35 5 -37 41 -40 21 -2 45 2
53 9 22 18 17 65 -8 83 -28 20 -38 20 -66 0z"/>
</g>
</svg>
