<?xml version="1.0" standalone="no"?>
<!DOCTYPE svg PUBLIC "-//W3C//DTD SVG 20010904//EN"
 "http://www.w3.org/TR/2001/REC-SVG-20010904/DTD/svg10.dtd">
<svg version="1.0" xmlns="http://www.w3.org/2000/svg"
 width="500.000000pt" height="500.000000pt" viewBox="0 0 500.000000 500.000000"
 preserveAspectRatio="xMidYMid meet">

<g transform="translate(0.000000,500.000000) scale(0.100000,-0.100000)"
fill="#000000" stroke="none">
<path d="M2476 4818 c-3 -40 -7 -130 -9 -200 -4 -117 -2 -128 14 -128 9 0 24
-2 32 -5 11 -5 15 13 21 92 8 111 20 133 72 133 48 0 55 -20 47 -134 l-6 -96
36 0 37 0 0 120 c0 115 -1 122 -25 145 -31 32 -85 33 -127 3 l-30 -21 3 79 4
79 -32 3 -31 3 -6 -73z"/>
<path d="M2836 4838 c-19 -27 -5 -58 27 -58 43 0 60 35 31 64 -21 22 -40 20
-58 -6z"/>
<path d="M2257 4756 c-75 -27 -105 -81 -92 -164 5 -35 16 -55 45 -84 33 -33
44 -38 84 -38 58 0 101 21 121 60 15 29 15 31 -10 42 -22 10 -27 8 -46 -15
-29 -38 -82 -38 -106 0 -27 41 -24 110 6 134 30 25 63 24 86 -1 17 -19 19 -19
37 -4 24 23 23 40 -5 59 -35 22 -78 26 -120 11z"/>
<path d="M2820 4736 c0 -2 -6 -39 -14 -82 -8 -44 -18 -105 -22 -137 l-6 -58
32 3 33 3 22 130 c13 72 21 133 18 138 -4 7 -63 10 -63 3z"/>
<path d="M1670 4715 c-40 -14 -40 -13 -26 -210 l8 -110 -104 108 -103 108 -35
-12 c-19 -6 -38 -15 -43 -19 -7 -6 25 -85 113 -277 l32 -72 28 14 28 15 -33
79 c-19 44 -41 94 -50 111 -9 18 -15 34 -12 36 2 2 46 -39 97 -92 88 -90 95
-95 118 -84 l25 11 -7 111 c-4 62 -9 122 -12 135 -4 13 -2 23 2 23 5 0 31 -52
58 -115 l50 -114 28 15 c23 12 28 19 22 37 -11 34 -132 299 -141 307 -4 4 -24
2 -43 -5z"/>
<path d="M2977 4703 c-3 -10 -20 -71 -38 -135 -18 -65 -31 -120 -28 -122 2 -2
17 -6 33 -8 29 -3 30 -1 52 73 12 42 27 86 33 98 16 29 55 37 87 16 29 -19 29
-15 -6 -144 -11 -41 -17 -78 -12 -83 4 -4 18 -9 31 -10 22 -3 26 5 52 97 35
123 36 140 3 170 -35 32 -77 40 -114 22 -29 -15 -30 -15 -30 9 0 14 -6 24 -14
24 -8 0 -21 3 -29 6 -9 3 -17 -2 -20 -13z"/>
<path d="M1940 4703 c-28 -11 -80 -55 -80 -68 0 -7 7 -18 15 -25 13 -11 20 -9
44 14 38 37 95 41 99 9 3 -18 -7 -27 -50 -49 -29 -15 -58 -34 -65 -43 -23 -30
-11 -102 21 -123 6 -4 28 -8 49 -8 30 0 44 7 67 32 24 26 32 29 44 19 8 -7 27
-11 43 -9 22 2 29 9 31 31 3 21 -1 27 -17 27 -21 0 -35 32 -47 108 -10 67 -36
92 -92 91 -26 0 -54 -3 -62 -6z m103 -159 c7 -39 -3 -64 -29 -74 -67 -26 -87
51 -21 82 44 21 44 21 50 -8z"/>
<path d="M3330 4583 c-49 -18 -100 -100 -100 -162 0 -44 33 -92 81 -116 34
-18 99 -19 122 -2 16 11 16 15 3 32 -10 15 -24 19 -53 17 -49 -4 -85 22 -85
62 0 15 1 29 4 31 2 3 42 -11 87 -30 45 -19 85 -35 87 -35 9 0 34 69 34 94 0
66 -112 134 -180 109z m101 -74 c11 -11 18 -27 15 -36 -3 -8 -6 -19 -6 -23 0
-10 -88 25 -104 40 -15 15 14 40 45 40 16 0 38 -9 50 -21z"/>
<path d="M3729 4404 c-30 -42 -63 -89 -74 -104 -68 -95 -85 -124 -78 -130 11
-11 155 -115 171 -124 15 -9 42 10 42 29 0 7 -30 34 -66 60 -63 45 -65 48 -50
68 9 12 24 33 33 47 10 14 43 60 75 103 32 43 58 82 58 87 0 5 -13 16 -29 24
l-29 15 -53 -75z"/>
<path d="M970 4173 c-14 -18 -19 -35 -15 -50 6 -25 -4 -30 -23 -11 -10 10 -17
7 -34 -10 l-22 -22 46 -47 c26 -27 70 -72 97 -102 l51 -55 24 23 25 24 -60 65
c-71 78 -80 104 -49 137 20 21 22 28 12 50 -15 32 -25 32 -52 -2z"/>
<path d="M1280 4160 c-15 -28 4 -60 36 -60 31 0 54 41 34 65 -18 21 -57 19
-70 -5z"/>
<path d="M3925 4166 c-39 -17 -80 -65 -95 -110 -21 -66 41 -157 117 -171 37
-7 57 7 48 34 -4 13 -15 21 -29 21 -48 0 -87 59 -70 104 10 26 22 19 90 -45
71 -69 78 -69 116 4 31 61 6 122 -63 158 -44 22 -72 23 -114 5z m114 -72 c25
-32 25 -35 7 -60 -14 -18 -17 -17 -58 24 -35 35 -40 44 -28 52 27 17 58 11 79
-16z"/>
<path d="M754 3948 c-76 -71 -56 -186 41 -232 39 -19 94 -21 129 -5 36 17 76
82 76 123 0 39 -11 50 -40 41 -15 -5 -20 -15 -20 -40 0 -52 -59 -91 -99 -66
-17 11 -3 38 55 107 41 48 43 52 26 66 -56 50 -118 51 -168 6z m99 -34 c9 -9
-17 -55 -46 -82 l-24 -23 -13 31 c-10 25 -10 34 4 55 16 24 63 35 79 19z"/>
<path d="M4157 3944 c-4 -21 0 -26 25 -31 16 -3 37 -17 48 -31 44 -55 10 -79
-52 -36 -66 46 -88 56 -113 50 -30 -8 -69 -69 -60 -96 11 -35 56 -80 80 -80
18 0 21 -4 17 -26 -3 -17 3 -33 18 -49 21 -23 25 -24 41 -9 9 8 15 23 12 33
-3 12 8 27 34 46 76 56 103 87 103 120 0 40 -40 98 -83 119 -48 22 -64 20 -70
-10z m-5 -132 l35 -27 -23 -18 c-29 -21 -52 -22 -76 0 -21 19 -23 44 -6 61 18
18 32 15 70 -16z"/>
<path d="M4305 3682 c-68 -40 -128 -77 -144 -89 -7 -5 22 -53 31 -53 5 0 40
18 77 40 81 48 126 53 143 15 12 -26 32 -31 58 -15 24 15 -7 64 -44 68 -26 3
-27 5 -12 21 14 15 14 19 0 39 -8 12 -18 22 -22 22 -4 0 -43 -22 -87 -48z"/>
<path d="M568 3688 c-24 -26 -29 -39 -26 -70 3 -32 1 -37 -14 -32 -12 3 -22
-4 -32 -25 l-16 -29 48 -30 c68 -42 232 -137 268 -156 32 -15 32 -15 45 16 9
21 9 33 2 35 -5 2 -34 19 -63 37 -50 32 -51 33 -27 40 33 8 67 64 67 109 0 69
-88 136 -178 137 -37 0 -49 -5 -74 -32z m170 -84 c27 -31 28 -44 1 -78 -13
-16 -30 -26 -47 -26 -33 0 -98 42 -107 69 -8 27 11 70 37 80 29 11 85 -11 116
-45z"/>
<path d="M4430 3497 c-36 -18 -89 -42 -118 -54 -51 -22 -52 -22 -40 -50 7 -15
13 -30 14 -32 2 -2 42 14 90 34 85 37 88 37 120 21 28 -13 34 -21 34 -46 0
-29 -5 -34 -95 -75 -95 -44 -106 -56 -82 -88 11 -16 19 -14 100 20 49 20 103
50 119 65 26 25 30 33 25 65 -7 38 -38 79 -69 89 -17 5 -17 7 -4 17 20 16 10
67 -13 66 -9 0 -45 -15 -81 -32z"/>
<path d="M462 3409 c-38 -11 -77 -66 -87 -121 -10 -56 24 -111 86 -137 58 -25
87 -26 132 -5 46 22 71 67 72 131 0 46 -4 56 -34 87 -24 25 -48 38 -83 45 -27
6 -50 11 -51 10 -1 0 -17 -5 -35 -10z m93 -73 c18 -8 39 -24 45 -36 15 -28 3
-77 -22 -91 -28 -15 -97 -1 -125 27 -28 29 -29 53 -2 88 23 30 53 33 104 12z"/>
<path d="M4710 3230 c-17 -17 -18 -24 -8 -45 14 -31 53 -34 68 -5 23 43 -27
83 -60 50z"/>
<path d="M4506 3169 c-66 -22 -121 -41 -123 -42 -2 -2 2 -18 8 -35 9 -25 14
-30 27 -23 10 4 58 20 107 34 147 42 146 41 134 77 -6 16 -16 30 -22 29 -7 -1
-66 -19 -131 -40z"/>
<path d="M196 3104 c-4 -15 -3 -30 1 -35 7 -7 196 -58 307 -82 46 -11 49 -10
72 16 33 38 32 77 -1 77 -13 0 -28 -7 -33 -16 -7 -12 -17 -15 -33 -10 -93 25
-291 76 -298 76 -5 0 -12 -12 -15 -26z"/>
<path d="M4545 3028 c-60 -11 -113 -23 -118 -27 -4 -4 -5 -21 -1 -37 l6 -30
86 18 c119 24 152 12 152 -56 0 -32 -17 -40 -105 -55 -96 -16 -105 -20 -105
-41 0 -48 4 -48 120 -25 115 23 136 34 152 74 12 33 -14 104 -45 119 l-22 11
23 7 c22 6 27 20 16 48 -7 19 -19 19 -159 -6z"/>
<path d="M314 2939 c-51 -26 -73 -111 -44 -175 20 -47 49 -65 122 -79 48 -9
120 23 137 62 24 52 24 115 1 152 l-21 34 -22 -22 c-18 -18 -20 -24 -9 -41 21
-34 15 -76 -14 -99 -49 -38 -58 -30 -49 47 15 130 16 127 -35 129 -25 1 -54
-3 -66 -8z m62 -96 c-12 -83 -13 -85 -42 -67 -32 22 -34 76 -2 98 41 29 51 21
44 -31z"/>
<path d="M4400 2717 c-71 -36 -58 -229 17 -258 15 -5 39 -7 55 -4 48 11 58 30
58 104 0 47 4 72 14 80 12 10 17 8 25 -8 6 -11 11 -31 11 -45 0 -14 5 -36 11
-49 20 -44 93 -62 123 -32 14 14 17 14 36 -5 28 -28 50 -26 50 4 0 16 -7 27
-21 31 -16 6 -19 12 -14 36 23 104 -87 184 -157 114 -20 -20 -27 -22 -31 -11
-3 8 -15 19 -25 25 -16 8 -26 6 -46 -10 -21 -16 -26 -17 -26 -5 0 13 -36 46
-50 46 -3 0 -16 -6 -30 -13z m68 -125 c2 -49 0 -64 -13 -68 -22 -9 -44 13 -51
53 -9 47 9 85 39 81 20 -3 22 -9 25 -66z m236 42 c23 -23 20 -51 -9 -70 -23
-15 -27 -15 -50 0 -29 19 -32 42 -8 68 20 22 46 23 67 2z"/>
<path d="M230 2622 c0 -26 6 -31 68 -55 37 -14 84 -31 105 -37 20 -6 35 -15
32 -19 -2 -5 -50 -23 -105 -41 -100 -34 -100 -34 -100 -67 0 -18 4 -33 9 -33
5 0 65 21 133 46 67 25 129 47 136 50 9 2 12 18 10 46 l-3 43 -125 47 c-149
57 -160 58 -160 20z"/>
<path d="M450 2324 c-8 -21 -6 -29 11 -42 36 -30 23 -113 -20 -125 -23 -6 -27
6 -37 111 l-7 72 -31 0 c-41 0 -94 -33 -107 -68 -28 -71 13 -163 82 -183 58
-18 140 2 174 42 47 56 29 180 -30 207 -23 11 -26 10 -35 -14z m-85 -91 c3
-21 8 -48 11 -60 6 -30 -28 -31 -56 -3 -24 24 -26 57 -3 82 25 28 42 22 48
-19z"/>
<path d="M4470 2293 c0 -13 -31 -197 -37 -220 -4 -20 -1 -23 25 -23 25 0 31 5
36 28 29 150 26 142 54 142 15 0 38 -3 51 -7 22 -5 23 -9 17 -56 -4 -27 -10
-63 -13 -78 -5 -27 -3 -29 24 -29 30 0 30 1 42 75 l13 76 36 -6 c20 -4 42 -8
48 -10 8 -2 7 -27 -4 -84 -8 -45 -13 -83 -11 -86 2 -2 16 -6 30 -10 l25 -6 19
120 c10 67 16 123 14 125 -5 5 -327 56 -352 56 -9 0 -17 -3 -17 -7z"/>
<path d="M355 2007 c-28 -13 -63 -38 -78 -56 -41 -49 -43 -85 -10 -199 l28
-100 95 29 c237 74 260 82 260 99 0 19 -36 123 -55 160 -7 14 -27 38 -44 54
-44 42 -125 47 -196 13z m169 -80 c17 -19 37 -51 43 -71 11 -37 11 -38 -22
-52 -19 -8 -39 -14 -44 -14 -6 0 -45 -11 -87 -25 -42 -14 -78 -25 -79 -25 -9
0 -25 69 -25 105 0 49 24 77 85 99 65 24 94 20 129 -17z"/>
<path d="M4416 2004 c-16 -43 -8 -52 77 -80 45 -14 88 -31 95 -37 6 -5 12 -27
12 -48 0 -62 -23 -67 -136 -28 -52 18 -96 30 -99 27 -3 -3 -7 -18 -8 -34 -2
-27 2 -29 97 -62 117 -40 157 -38 181 8 18 34 19 83 4 112 -10 19 -9 20 10 15
17 -4 24 0 32 19 14 39 13 40 -53 59 -35 9 -94 28 -131 41 -81 28 -73 28 -81
8z"/>
<path d="M4307 1679 c-23 -13 -47 -62 -47 -94 0 -20 5 -25 24 -25 15 0 27 7
31 19 12 40 30 43 87 19 92 -40 91 -38 73 -81 -14 -35 -14 -38 2 -44 10 -3 21
-8 26 -10 4 -3 14 12 23 32 11 28 19 35 32 30 41 -17 49 -16 55 7 11 37 8 46
-14 53 -16 5 -19 12 -15 30 8 30 -31 47 -49 21 -11 -14 -20 -12 -93 19 -84 37
-106 41 -135 24z"/>
<path d="M670 1561 c0 -23 5 -30 22 -33 48 -7 74 -108 32 -125 -17 -6 -31 10
-70 86 -16 29 -34 56 -41 58 -20 8 -74 -37 -89 -73 -30 -72 42 -174 124 -174
78 0 162 75 162 146 0 63 -65 144 -116 144 -20 0 -24 -5 -24 -29z m-27 -141
c23 -42 26 -51 13 -56 -25 -10 -48 0 -69 28 -17 23 -19 31 -9 53 17 37 34 31
65 -25z"/>
<path d="M4215 1514 c-9 -14 -15 -27 -13 -28 2 -2 36 -24 76 -50 84 -55 104
-84 81 -124 -26 -47 -40 -42 -204 64 -19 12 -23 11 -38 -16 l-18 -29 87 -57
c92 -59 138 -73 173 -55 29 16 54 68 49 102 -3 16 -2 29 2 29 3 0 30 -16 60
-35 30 -19 58 -35 62 -35 4 0 15 12 24 26 15 22 15 27 3 34 -20 12 -171 108
-247 158 -37 23 -69 42 -73 42 -4 0 -14 -12 -24 -26z"/>
<path d="M880 1268 c-58 -45 -112 -78 -128 -78 -7 0 -25 12 -39 26 -22 22 -29
24 -49 15 -13 -6 -24 -14 -24 -19 0 -18 42 -52 65 -52 23 0 24 -2 13 -20 -11
-17 -10 -23 8 -40 l20 -21 107 82 c59 45 107 87 107 94 0 6 -8 19 -18 29 -18
15 -21 14 -62 -16z"/>
<path d="M4011 1231 c-24 -22 -31 -38 -31 -66 0 -32 -2 -36 -15 -25 -13 10
-19 10 -35 -5 -11 -10 -20 -23 -19 -29 0 -6 43 -47 95 -91 52 -44 94 -83 94
-87 0 -16 26 -6 42 16 17 24 17 24 -52 89 -76 70 -89 106 -51 141 27 25 48 15
127 -59 l69 -64 25 25 25 25 -55 50 c-130 118 -164 131 -219 80z"/>
<path d="M962 1203 c-5 -10 -7 -24 -5 -31 3 -7 -22 -42 -56 -77 -51 -53 -61
-69 -61 -98 0 -42 34 -87 84 -111 49 -23 73 -21 78 8 4 20 0 25 -21 29 -32 7
-81 44 -81 62 0 7 7 18 15 25 12 10 22 8 53 -13 58 -40 91 -50 124 -36 43 17
60 65 42 113 -8 22 -72 59 -89 52 -11 -4 -15 2 -15 24 0 29 -29 70 -50 70 -5
0 -13 -8 -18 -17z m98 -123 c11 -11 20 -24 20 -29 0 -12 -29 -41 -40 -41 -14
0 -80 33 -80 39 1 19 43 50 68 51 6 0 21 -9 32 -20z"/>
<path d="M3823 1034 c-35 -15 -83 -77 -83 -107 0 -10 7 -31 15 -46 25 -49 66
-54 139 -15 44 23 50 24 64 10 14 -14 14 -18 -7 -40 -13 -13 -34 -27 -47 -30
-33 -9 -35 -56 -1 -56 49 0 127 77 127 125 0 24 -55 75 -80 75 -11 0 -43 -12
-71 -26 -40 -20 -54 -23 -65 -13 -8 6 -14 18 -14 25 0 18 58 54 88 54 18 0 22
6 22 30 0 26 -3 30 -27 29 -16 0 -42 -7 -60 -15z"/>
<path d="M1115 889 c-102 -88 -105 -92 -89 -110 9 -11 20 -19 24 -19 3 0 37
29 76 65 38 35 72 64 76 65 4 0 -8 -43 -27 -95 -19 -53 -35 -98 -35 -100 0 -3
11 -12 24 -20 24 -16 27 -15 100 46 42 34 79 60 81 57 3 -3 -11 -40 -30 -82
-41 -91 -42 -99 -13 -118 22 -15 23 -13 75 111 29 69 53 131 53 136 -1 17 -49
47 -63 39 -6 -4 -43 -32 -80 -62 -37 -30 -69 -53 -71 -51 -2 2 11 42 30 88 19
47 34 90 34 97 0 10 -41 44 -54 44 -3 0 -52 -41 -111 -91z"/>
<path d="M3638 887 l-27 -22 22 -27 c12 -14 49 -65 82 -112 33 -47 62 -86 65
-86 3 0 16 9 29 19 l23 18 -41 59 c-23 32 -60 85 -82 117 -22 31 -41 57 -42
57 -1 -1 -14 -11 -29 -23z"/>
<path d="M3504 801 c-32 -15 -44 -26 -49 -50 -6 -27 -9 -30 -27 -20 -27 14
-78 -6 -78 -32 0 -21 18 -35 40 -31 10 2 29 -23 53 -68 40 -74 63 -93 108 -92
39 1 103 45 122 83 15 32 15 34 -6 48 -19 13 -22 13 -31 -4 -20 -35 -55 -65
-76 -65 -40 0 -34 29 19 85 28 29 51 62 51 72 0 22 -36 83 -49 83 -5 0 -15 2
-23 5 -7 2 -32 -4 -54 -14z m54 -81 c4 -34 -54 -93 -69 -70 -20 32 -21 61 -3
81 26 28 68 22 72 -11z"/>
<path d="M1480 776 c0 -8 -2 -21 -6 -29 -3 -10 4 -16 25 -20 23 -5 31 -12 31
-28 0 -24 -60 -139 -73 -139 -4 0 -21 7 -37 15 -27 14 -30 14 -40 -4 -14 -27
-14 -29 21 -47 30 -15 32 -23 15 -64 -5 -11 3 -19 24 -27 29 -11 32 -10 42 13
9 19 17 24 34 20 31 -8 49 22 28 45 -14 15 -12 24 20 88 52 102 46 149 -19
177 -44 18 -65 18 -65 0z"/>
<path d="M3265 680 c-82 -19 -122 -64 -110 -121 11 -49 37 -62 107 -57 74 6
88 2 88 -22 0 -21 -51 -45 -80 -37 -16 4 -24 -1 -31 -20 -5 -14 -7 -28 -5 -31
12 -12 88 -1 125 17 32 17 41 28 46 55 15 76 -26 108 -128 98 -57 -5 -59 -4
-55 19 4 33 50 54 88 41 26 -10 29 -8 39 19 5 16 7 30 3 32 -18 10 -60 14 -87
7z"/>
<path d="M1724 633 c-68 -169 -73 -175 -116 -152 -18 9 -24 8 -35 -7 -19 -26
-17 -31 22 -45 38 -14 46 -38 19 -60 -14 -11 -21 -10 -47 5 -30 17 -32 17 -44
0 -7 -10 -13 -21 -13 -25 0 -11 83 -49 107 -49 28 0 69 35 77 65 5 21 10 24
25 15 15 -8 20 -5 25 13 9 33 8 37 -10 37 -20 0 -18 5 31 124 36 85 37 90 19
103 -29 21 -44 15 -60 -24z"/>
<path d="M3831 624 c-26 -18 -25 -51 2 -68 23 -15 51 3 55 37 4 35 -26 52 -57
31z"/>
<path d="M1876 579 c-86 -67 -83 -205 5 -250 79 -40 158 -18 195 53 21 41 21
128 0 161 -37 56 -149 76 -200 36z m140 -64 c24 -36 11 -98 -28 -130 -34 -29
-62 -26 -90 7 -21 24 -22 42 -7 89 17 50 28 59 70 59 30 0 42 -6 55 -25z"/>
<path d="M2990 591 c-14 -3 -34 -11 -45 -18 -16 -10 -18 -15 -9 -30 9 -14 21
-17 52 -15 41 4 41 3 52 -40 6 -24 16 -58 22 -76 12 -39 12 -38 -34 -54 -32
-12 -35 -16 -27 -37 9 -23 23 -24 72 -5 11 4 17 -4 22 -25 7 -34 21 -38 50
-18 12 10 16 22 13 40 -4 19 0 27 14 31 30 7 20 51 -11 51 -20 0 -26 8 -38 50
-30 109 -43 133 -75 144 -17 6 -31 10 -32 10 -1 -1 -12 -4 -26 -8z"/>
<path d="M2183 528 c-41 -20 -60 -99 -36 -148 15 -29 31 -40 93 -65 65 -27 75
-34 78 -58 6 -49 -68 -58 -130 -15 -26 18 -27 18 -42 -4 -22 -31 -21 -35 17
-58 23 -15 50 -20 100 -20 62 0 71 3 98 29 23 23 29 38 29 71 0 50 -33 87 -96
109 -60 21 -84 39 -84 65 0 35 24 49 73 43 30 -4 50 -15 69 -36 l26 -29 22 23
c18 19 20 27 10 45 -26 48 -165 78 -227 48z"/>
<path d="M2714 526 c-12 -31 0 -61 27 -64 31 -4 52 18 47 50 -2 18 -10 24 -36
26 -21 2 -34 -2 -38 -12z"/>
</g>
</svg>
